<?xml version="1.0" encoding="UTF-8"?>
<svg id="Layer_2" data-name="Layer 2" xmlns="http://www.w3.org/2000/svg" viewBox="0 0 109.42 40.89">
  <defs>
    <style>
      .cls-1 {
        fill: #3a3a3a;
      }

      .cls-2 {
        fill: #139f93;
      }
    </style>
  </defs>
  <g id="Layer_1-2" data-name="Layer 1">
    <g>
      <g>
        <path class="cls-2" d="M28.69,10.54l-.73.13c-.17.04-.3.12-.4.21s-.14.23-.14.38v12.13c0,.28.08.48.25.6.17.12.44.18.8.18h2.31c.42,0,.79-.06,1.08-.17.3-.11.56-.3.78-.58.22-.28.44-.67.65-1.18l.62-1.47c.07-.15.16-.26.26-.31.1-.05.22-.07.36-.04.15.03.25.09.31.2.06.1.07.24.02.41l-.93,3.83c-.06.22-.14.38-.24.48-.1.1-.25.15-.43.15-.15,0-.28-.03-.41-.1-.13-.07-.27-.14-.42-.21-.15-.07-.35-.1-.58-.1h-8.14c-.19,0-.33-.04-.42-.11-.09-.07-.13-.17-.13-.3,0-.22.14-.37.43-.45l.71-.13c.18-.04.31-.12.41-.21.1-.1.14-.23.14-.38v-12.23c0-.15-.05-.28-.14-.38-.1-.1-.23-.17-.41-.21l-.71-.13c-.29-.08-.43-.23-.43-.45,0-.13.04-.23.13-.3.09-.07.23-.1.42-.1h4.86c.19,0,.33.03.41.1.08.07.13.17.13.3,0,.22-.14.37-.42.45Z"/>
        <path class="cls-2" d="M40.93,10.09c0-.13.04-.23.13-.3.09-.07.22-.1.41-.1h8.35c.23,0,.43-.04.58-.12.15-.08.29-.16.42-.24.13-.08.28-.12.45-.12s.31.05.41.15c.1.1.17.26.23.48l.85,3.08c.05.15.05.27,0,.37s-.14.17-.27.21c-.15.04-.29.04-.41-.02s-.22-.17-.3-.32c-.25-.56-.48-1.01-.69-1.35-.21-.34-.43-.6-.65-.78-.22-.18-.46-.29-.73-.36-.27-.06-.58-.09-.94-.09h-3.56v12.62c0,.32.1.57.3.73s.51.25.93.25h2.65c.48,0,.88-.08,1.22-.24.33-.16.65-.46.96-.92s.64-1.14,1.02-2.05c.07-.14.15-.23.25-.29s.21-.07.34-.05c.15.02.25.09.32.19s.08.25.03.42l-.89,3.6c-.06.22-.14.38-.24.48-.1.1-.25.15-.44.15-.15,0-.3-.03-.43-.1-.13-.07-.27-.13-.42-.2-.15-.07-.34-.1-.56-.1h-8.75c-.18,0-.32-.04-.41-.11-.09-.07-.13-.17-.13-.3,0-.22.14-.37.42-.45l.72-.13c.18-.04.32-.12.41-.21.09-.1.14-.23.14-.38v-12.23c0-.15-.05-.28-.14-.38s-.23-.17-.41-.21l-.72-.13c-.28-.08-.42-.23-.42-.45ZM44.2,16.96h3.82c.45,0,.76-.09.94-.26.18-.17.3-.51.37-1.01.03-.15.08-.27.15-.35.07-.08.16-.12.28-.14.24-.03.4.1.47.4l.81,3.15c.04.16.04.29,0,.38s-.13.16-.25.2c-.12.03-.24.02-.34-.02-.1-.04-.19-.12-.26-.24-.18-.34-.35-.59-.51-.77-.16-.18-.33-.3-.53-.36-.19-.07-.44-.1-.73-.1h-4.21v-.89Z"/>
        <path class="cls-2" d="M62.98,24.68c0,.12-.04.22-.13.3s-.23.11-.43.11h-3.41c-.19,0-.33-.04-.42-.11-.09-.07-.14-.17-.14-.29,0-.1.03-.17.08-.24.05-.06.16-.13.32-.19l.42-.14c.21-.09.37-.21.48-.36.11-.15.22-.43.35-.84l3.87-11.54c.09-.26.11-.45.06-.57-.05-.11-.2-.2-.47-.27-.21-.06-.35-.12-.43-.2-.08-.07-.12-.16-.12-.26,0-.12.05-.22.14-.29.1-.07.24-.1.43-.1h4.57c.2,0,.34.03.43.1.09.07.14.16.14.28s-.04.21-.12.29-.22.13-.41.18c-.21.04-.34.11-.38.2-.04.09-.03.24.04.46l4.08,12.02c.1.3.21.53.35.68s.34.25.59.31c.21.07.34.13.41.2.07.07.1.16.1.27,0,.12-.05.22-.14.3-.1.07-.24.11-.43.11h-4.38c-.19,0-.33-.04-.42-.11-.09-.07-.14-.17-.14-.3,0-.1.03-.19.1-.25.07-.07.18-.12.32-.17l.78-.12c.19-.04.29-.13.29-.25,0-.12-.04-.32-.13-.59l-4.21-12.59.33-.15-4.08,12.24c-.09.26-.13.48-.13.66s.05.31.16.41.27.19.49.28l.74.13c.15.04.25.09.32.15.07.06.1.14.1.25ZM61.91,18.96h6.58l.08.95h-6.75l.1-.95Z"/>
        <path class="cls-2" d="M91.12,15.21c0,.94-.24,1.75-.71,2.44-.47.69-1.14,1.22-2,1.61-.86.38-1.87.57-3.02.57-.78,0-1.5-.08-2.16-.24-.66-.16-1.23-.39-1.71-.68l.14-.81c.26.17.55.31.89.43.33.12.69.21,1.07.28.38.06.76.09,1.15.09.75,0,1.41-.15,1.97-.44s1.01-.72,1.33-1.29c.32-.56.48-1.24.48-2.02,0-.92-.19-1.72-.58-2.4s-.93-1.21-1.64-1.59c-.71-.38-1.56-.57-2.54-.57h-1.16v12.92c0,.15.05.28.14.39s.23.17.41.2l1.11.13c.16.02.28.07.35.14.07.07.1.18.1.31,0,.12-.04.22-.13.3-.08.07-.22.11-.41.11h-5.29c-.18,0-.32-.04-.41-.11-.09-.07-.13-.17-.13-.3,0-.22.14-.37.42-.45l.72-.13c.18-.04.32-.12.41-.21.09-.1.14-.23.14-.38v-12.23c0-.15-.05-.28-.14-.38s-.23-.17-.41-.21l-.72-.13c-.28-.08-.42-.23-.42-.45,0-.13.04-.23.13-.3.09-.07.22-.1.41-.1h4.94c1.52,0,2.83.24,3.91.71,1.08.48,1.91,1.13,2.49,1.96.58.83.86,1.78.86,2.85Z"/>
      </g>
      <g>
        <path class="cls-1" d="M41.32,29.97l.14,2.51h-.38l-.18-.64c-.29-.98-.79-1.4-1.69-1.4h-1.11v.23h.41v6.09c0,.52.27.8.81.84l.26.02v.33h-3.36v-.33l.26-.02c.54-.05.81-.32.81-.84v-6.32h-.71c-.9,0-1.4.42-1.69,1.4l-.18.64h-.38l.14-2.51h6.84Z"/>
        <path class="cls-1" d="M43.72,33.68c.55-.78,1.23-1.21,1.92-1.21.99,0,1.58.63,1.58,1.7v2.71c0,.47.22.72.66.76l.24.02v.3h-2.76v-.3l.21-.02c.41-.05.6-.3.6-.76v-2.62c0-.67-.38-1.06-1.03-1.06-.47,0-.95.27-1.29.73v2.96c0,.47.19.72.6.76l.21.02v.3h-2.76v-.3l.24-.02c.45-.05.66-.3.66-.76v-5.91c0-.33-.11-.47-.52-.63l-.41-.17,1.99-.48v3.47l-.35.48v.35l.23-.31Z"/>
        <path class="cls-1" d="M49.39,34.92v.22h.37c.03,1.31.74,2.23,1.72,2.23.79,0,1.35-.31,1.7-.95h.02c-.19,1-.97,1.66-1.93,1.66-1.58,0-2.63-1.1-2.63-2.73s1.13-2.87,2.49-2.87,2.21,1,2.17,2.44h-3.91ZM49.77,34.53h2.41c0-.92-.47-1.59-1.13-1.59-.71,0-1.18.57-1.28,1.59Z"/>
        <path class="cls-1" d="M54.35,33.19l-.41-.19,1.99-.51v.84c-.06.1-.24.47-.29.58v.48c.41-1.14,1.19-1.94,1.95-1.94.58,0,.89.39.91.78.02.46-.29.72-.62.74-.32.01-.65-.24-.65-.62,0-.09.06-.22.1-.24h.16v-.19c-.71-.03-1.36.78-1.58,1.45v2.51c0,.46.21.73.63.76l.27.02v.3h-2.85v-.3l.24-.02c.46-.05.66-.31.66-.76v-3.07c0-.31-.08-.4-.53-.62Z"/>
        <path class="cls-1" d="M62.3,36.88v-.31l-.11.17c-.7,1.05-1.19,1.34-1.86,1.34-.95,0-1.52-.51-1.52-1.36,0-.74.38-1.13,1.45-1.5l1.76-.59v-.52c0-.71-.42-1.18-1.06-1.18-.59,0-1.11.25-1.16.6h.35c.08.62-.19.89-.58.89-.29,0-.54-.25-.54-.59,0-.64.84-1.35,2.03-1.35,1.29,0,2,.58,2,1.64v2.9c0,.24.15.39.37.39.23,0,.39-.06.57-.23h.02c-.19.48-.71.84-1.14.84-.51,0-.82-.27-.83-.74l.26-.41ZM60.71,37.47c.48,0,.98-.39,1.3-.95v-1.53l-1.18.41c-.72.26-.99.57-.99,1.16,0,.54.34.9.87.9Z"/>
        <path class="cls-1" d="M67.05,40.59h-2.85v-.3l.24-.02c.45-.05.66-.3.66-.76v-5.7c0-.31-.08-.4-.52-.62l-.41-.19,1.99-.51v.71l-.35.49v.38l.21-.31c.57-.86,1.18-1.28,1.88-1.28,1.29,0,2.21,1.08,2.21,2.58,0,1.73-1.18,3.01-2.77,3.01-.47,0-.86-.08-1.18-.24v1.68c0,.47.22.72.66.76l.24.02v.3ZM66.15,33.99v3.14c.3.27.75.48,1.15.48.99,0,1.65-.92,1.65-2.29,0-1.24-.64-2.12-1.56-2.12-.49,0-.95.33-1.24.8Z"/>
        <path class="cls-1" d="M72.91,37.89l-1.76-4.22c-.19-.47-.45-.69-.88-.79v-.29h2.6v.3l-.17.02c-.42.06-.57.33-.41.74l1.07,2.75-.17.38.13.24,1.45-3.05c.3-.62.14-.98-.42-1.06l-.17-.02v-.3h2.16v.29c-.38.1-.67.39-.91.88l-2.67,5.51c-.44.91-1.02,1.35-1.76,1.35-.52,0-.9-.31-.92-.75-.02-.35.22-.64.55-.65.32-.01.59.24.59.56,0,.09-.05.21-.09.23h-.14v.17h.15c.5,0,.89-.41,1.38-1.45l.4-.83Z"/>
      </g>
      <g>
        <path class="cls-1" d="M99.93,21.57c-.09-2.39,0-4.52-.21-6.75-1.93-7.59-9.02-12.77-16.54-14.33,2.41-.24,4.38.84,6.4,1.82,7.53,4.19,12.21,10.58,10.35,19.25Z"/>
        <path class="cls-1" d="M109.42,17.57c-4-2.39-8.53-5.63-11.11-9.58,4.84-.35,10.2,4.54,11.11,9.58ZM108.93,16.77c-1.63-4.48-5.36-7.94-9.99-8.54,2.72,3.68,6.15,6.35,9.99,8.54Z"/>
        <path class="cls-1" d="M89.93,1.76c3.33-3.24,10.52-1.57,14.47,1.51-4.88,1.2-9.83,1-14.47-1.51ZM103.49,3.13l-1.49-.99c-.74-.49-1.61-.76-2.47-1.02-3.01-.9-6.22-1.19-9.25.56,4.13,1.98,8.68,2.24,13.21,1.45Z"/>
        <path class="cls-1" d="M104.88,29.95c-2.86-3.73-3.28-9.23-3.51-13.82,2.8,2.27,3.95,5.37,4.15,8.66-.05,1.7-.15,3.32-.64,5.16ZM102.07,17.15l-.36-.37.3,2.99c.33,3.31.96,6.56,2.76,9.53.82-4.78.28-8.64-2.7-12.14Z"/>
        <path class="cls-1" d="M95.62,33.87c-.33-3.91.88-9.07,4.06-11.55.43,1.88.41,4.4-.42,6.4-.71,1.95-1.76,3.65-3.63,5.14ZM95.97,33.09c2.81-2.78,4.2-6.45,3.56-10.22-2.58,2.88-3.58,6.52-3.56,10.22Z"/>
        <path class="cls-1" d="M98.57,19.27c-.64,2.41-2.5,5.27-4.82,6.57,0-3.61,2.53-8.28,5.18-10.93.48,1.61.01,2.94-.37,4.36ZM94.17,25.21c3-2.39,4.53-5.86,4.7-9.66-2.27,2.37-4.57,6.49-4.7,9.66Z"/>
      </g>
      <g>
        <path class="cls-1" d="M21.13,38.13c1.98.99,3.85,1.16,5.86,1.84-9.69-.95-19.81-9.81-18.04-20.52.4,2.37.12,4.74.91,7.06,1.82,5.4,6.04,9,11.27,11.62Z"/>
        <path class="cls-1" d="M8.01,24.96c-4.12-2.54-5.74-8.62-4.73-13.52,2,2.19,2.82,4.67,3.59,7.29.4,1.99.85,3.84,1.14,6.23ZM6.76,20.09c-.52-2.79-1.5-5.37-3.2-7.74-.79,3.51.69,9.76,3.95,11.78.05.03-.74-4.04-.74-4.04Z"/>
        <path class="cls-1" d="M11.58,32.89c-4.44.71-10.49-4.01-11.58-8.81,4.42,1.95,8.21,4.85,11.58,8.81ZM10.87,32.67c-2.93-3.58-6.42-5.86-10.26-8,1.57,4.48,5.71,7.49,10.26,8Z"/>
        <path class="cls-1" d="M20.48,38.92c-4.04,3.33-10.45,2.02-14.55-.81,4.8-1.66,9.99-1.4,14.55.81ZM19.86,38.93c-4.24-1.73-8.82-2.05-13.1-.65,4.05,2.42,9.51,3.15,13.1.65Z"/>
        <path class="cls-1" d="M12.23,6.82c.94,3.92-1.38,11.16-3.05,11.52-.17.04-.39-.38-.52-.61-.63-3.89.53-8.02,3.57-10.91ZM9.18,17.94c2.36-3.1,2.99-6.66,2.75-10.4-2.54,2.87-3.67,6.71-2.75,10.4Z"/>
        <path class="cls-1" d="M10.52,25.87c-1.39-3.3,1.09-9.27,4.06-11.09.24,1.32.07,2.48-.29,3.68l-.49,1.62c-.63,2.09-1.71,3.85-3.28,5.78ZM14.27,15.42c-2.85,2.58-4.02,6.25-3.79,9.83,2.25-2.81,3.74-6.52,3.79-9.83Z"/>
        <path class="cls-1" d="M14.07,31.59c-1.81-2.86-.15-8.43,2.55-10.31.41,1.17.4,2.22.19,3.34l-.27,1.5c-.35,1.93-1.18,3.61-2.48,5.48ZM16.39,21.88c-2.47,2.56-3.01,5.75-2.32,8.96,1.85-2.71,2.7-5.97,2.32-8.96Z"/>
      </g>
    </g>
  </g>
</svg>